<mxfile host="app.diagrams.net" modified="2022-08-31T06:14:06.344Z" agent="5.0 (Windows NT 10.0; WOW64) AppleWebKit/537.36 (KHTML, like Gecko) Chrome/78.0.3904.108 Safari/537.36" etag="jIdRke5izEBCwVZpyeXX" version="20.2.7" type="github">
  <diagram id="gVqvRpynbHTG9BudDyFP" name="第 1 页">
    <mxGraphModel dx="3078" dy="737" grid="1" gridSize="10" guides="1" tooltips="1" connect="1" arrows="1" fold="1" page="1" pageScale="1" pageWidth="827" pageHeight="1169" math="0" shadow="0">
      <root>
        <mxCell id="0" />
        <mxCell id="1" parent="0" />
        <mxCell id="jGhHQP5u2WxOua8I9M75-1" value="" style="group" vertex="1" connectable="0" parent="1">
          <mxGeometry x="-1432" y="373.5" width="940" height="250" as="geometry" />
        </mxCell>
        <mxCell id="jGhHQP5u2WxOua8I9M75-2" value="" style="rounded=0;whiteSpace=wrap;html=1;fillColor=#CCFFE6;strokeColor=#000000;" vertex="1" parent="jGhHQP5u2WxOua8I9M75-1">
          <mxGeometry width="940" height="250" as="geometry" />
        </mxCell>
        <mxCell id="jGhHQP5u2WxOua8I9M75-3" value="" style="endArrow=none;html=1;fontSize=19;" edge="1" parent="jGhHQP5u2WxOua8I9M75-1">
          <mxGeometry width="50" height="50" relative="1" as="geometry">
            <mxPoint y="86" as="sourcePoint" />
            <mxPoint x="940" y="86" as="targetPoint" />
          </mxGeometry>
        </mxCell>
        <mxCell id="jGhHQP5u2WxOua8I9M75-4" value="" style="endArrow=none;html=1;fontSize=19;" edge="1" parent="jGhHQP5u2WxOua8I9M75-1">
          <mxGeometry width="50" height="50" relative="1" as="geometry">
            <mxPoint y="170" as="sourcePoint" />
            <mxPoint x="940" y="170" as="targetPoint" />
          </mxGeometry>
        </mxCell>
        <mxCell id="jGhHQP5u2WxOua8I9M75-5" value="" style="endArrow=none;html=1;fontSize=19;" edge="1" parent="jGhHQP5u2WxOua8I9M75-1">
          <mxGeometry width="50" height="50" relative="1" as="geometry">
            <mxPoint x="330" as="sourcePoint" />
            <mxPoint x="330" y="250" as="targetPoint" />
          </mxGeometry>
        </mxCell>
        <mxCell id="jGhHQP5u2WxOua8I9M75-6" value="" style="rounded=0;whiteSpace=wrap;html=1;fontSize=15;fillColor=#FFFBC2;strokeColor=#000000;" vertex="1" parent="1">
          <mxGeometry x="-942" y="260.5" width="450" height="100" as="geometry" />
        </mxCell>
        <mxCell id="jGhHQP5u2WxOua8I9M75-7" value="" style="rounded=0;whiteSpace=wrap;html=1;fillColor=#E6E6E6;strokeColor=#000000;fontColor=#333333;" vertex="1" parent="1">
          <mxGeometry x="-761" y="183.5" width="509" height="60" as="geometry" />
        </mxCell>
        <mxCell id="jGhHQP5u2WxOua8I9M75-8" value="" style="rounded=0;whiteSpace=wrap;html=1;fillColor=#E6E6E6;strokeColor=#000000;fontColor=#333333;" vertex="1" parent="1">
          <mxGeometry x="-1432" y="183.5" width="660" height="60" as="geometry" />
        </mxCell>
        <mxCell id="jGhHQP5u2WxOua8I9M75-9" value="支付网关" style="text;html=1;strokeColor=none;fillColor=none;align=center;verticalAlign=middle;whiteSpace=wrap;rounded=0;fontSize=15;fontStyle=1;" vertex="1" parent="1">
          <mxGeometry x="-1392" y="203.5" width="70" height="20" as="geometry" />
        </mxCell>
        <mxCell id="jGhHQP5u2WxOua8I9M75-10" value="API开放" style="rounded=0;whiteSpace=wrap;html=1;fontSize=15;fillColor=#99CCFF;" vertex="1" parent="1">
          <mxGeometry x="-1293" y="193.5" width="90" height="40" as="geometry" />
        </mxCell>
        <mxCell id="jGhHQP5u2WxOua8I9M75-11" value="API开放" style="rounded=0;whiteSpace=wrap;html=1;fontSize=15;fillColor=#99CCFF;" vertex="1" parent="1">
          <mxGeometry x="-1190" y="193.5" width="90" height="40" as="geometry" />
        </mxCell>
        <mxCell id="jGhHQP5u2WxOua8I9M75-12" value="验签" style="rounded=0;whiteSpace=wrap;html=1;fontSize=15;fillColor=#99CCFF;" vertex="1" parent="1">
          <mxGeometry x="-1087" y="193.5" width="90" height="40" as="geometry" />
        </mxCell>
        <mxCell id="jGhHQP5u2WxOua8I9M75-13" value="限流" style="rounded=0;whiteSpace=wrap;html=1;fontSize=15;fillColor=#99CCFF;" vertex="1" parent="1">
          <mxGeometry x="-985" y="193.5" width="90" height="40" as="geometry" />
        </mxCell>
        <mxCell id="jGhHQP5u2WxOua8I9M75-14" value="降级" style="rounded=0;whiteSpace=wrap;html=1;fontSize=15;fillColor=#99CCFF;" vertex="1" parent="1">
          <mxGeometry x="-882" y="193.5" width="90" height="40" as="geometry" />
        </mxCell>
        <mxCell id="jGhHQP5u2WxOua8I9M75-15" value="收银台" style="text;html=1;strokeColor=none;fillColor=none;align=center;verticalAlign=middle;whiteSpace=wrap;rounded=0;fontSize=15;fontStyle=1;" vertex="1" parent="1">
          <mxGeometry x="-737" y="203.5" width="70" height="20" as="geometry" />
        </mxCell>
        <mxCell id="jGhHQP5u2WxOua8I9M75-16" value="充值收银台" style="rounded=0;whiteSpace=wrap;html=1;fontSize=15;fillColor=#99CCFF;" vertex="1" parent="1">
          <mxGeometry x="-657" y="193.5" width="90" height="40" as="geometry" />
        </mxCell>
        <mxCell id="jGhHQP5u2WxOua8I9M75-17" value="转账收银台" style="rounded=0;whiteSpace=wrap;html=1;fontSize=15;fillColor=#99CCFF;" vertex="1" parent="1">
          <mxGeometry x="-517" y="193.5" width="90" height="40" as="geometry" />
        </mxCell>
        <mxCell id="jGhHQP5u2WxOua8I9M75-18" value="提现申请页" style="rounded=0;whiteSpace=wrap;html=1;fontSize=15;fillColor=#99CCFF;" vertex="1" parent="1">
          <mxGeometry x="-377.5" y="193.5" width="90" height="40" as="geometry" />
        </mxCell>
        <mxCell id="jGhHQP5u2WxOua8I9M75-19" value="" style="rounded=0;whiteSpace=wrap;html=1;fontSize=15;fillColor=#FFFBC2;strokeColor=#000000;" vertex="1" parent="1">
          <mxGeometry x="-1432" y="260.5" width="472" height="100" as="geometry" />
        </mxCell>
        <mxCell id="jGhHQP5u2WxOua8I9M75-20" value="支付核心" style="text;html=1;strokeColor=none;fillColor=none;align=center;verticalAlign=middle;whiteSpace=wrap;rounded=0;fontSize=15;fontStyle=1" vertex="1" parent="1">
          <mxGeometry x="-1402" y="300.5" width="70" height="20" as="geometry" />
        </mxCell>
        <mxCell id="jGhHQP5u2WxOua8I9M75-21" value="商户平台" style="text;html=1;strokeColor=none;fillColor=none;align=center;verticalAlign=middle;whiteSpace=wrap;rounded=0;fontSize=15;fontStyle=1" vertex="1" parent="1">
          <mxGeometry x="-932" y="300.5" width="70" height="20" as="geometry" />
        </mxCell>
        <mxCell id="jGhHQP5u2WxOua8I9M75-22" value="&lt;span style=&quot;font-size: 15px&quot;&gt;认证&lt;br style=&quot;font-size: 15px&quot;&gt;&lt;br style=&quot;font-size: 15px&quot;&gt;实名，资质&lt;br style=&quot;font-size: 15px&quot;&gt;&lt;/span&gt;" style="rounded=1;whiteSpace=wrap;html=1;fontSize=15;arcSize=7;fillColor=#E5CCFF;strokeColor=#000000;" vertex="1" parent="1">
          <mxGeometry x="-709.5" y="280.5" width="90" height="60" as="geometry" />
        </mxCell>
        <mxCell id="jGhHQP5u2WxOua8I9M75-23" value="" style="endArrow=none;html=1;fontSize=15;exitX=0;exitY=0.5;exitDx=0;exitDy=0;entryX=1;entryY=0.5;entryDx=0;entryDy=0;" edge="1" parent="1" source="jGhHQP5u2WxOua8I9M75-22" target="jGhHQP5u2WxOua8I9M75-22">
          <mxGeometry width="50" height="50" relative="1" as="geometry">
            <mxPoint x="-667" y="396.5" as="sourcePoint" />
            <mxPoint x="-617" y="346.5" as="targetPoint" />
          </mxGeometry>
        </mxCell>
        <mxCell id="jGhHQP5u2WxOua8I9M75-24" value="&lt;span style=&quot;font-size: 14px&quot;&gt;会员交易&lt;br&gt;&lt;br&gt;充值，提现，转账&lt;br&gt;&lt;/span&gt;" style="rounded=1;whiteSpace=wrap;html=1;fontSize=15;arcSize=7;fillColor=#E5CCFF;strokeColor=#000000;" vertex="1" parent="1">
          <mxGeometry x="-1127" y="280.5" width="125" height="60" as="geometry" />
        </mxCell>
        <mxCell id="jGhHQP5u2WxOua8I9M75-25" value="" style="endArrow=none;html=1;fontSize=15;exitX=0;exitY=0.5;exitDx=0;exitDy=0;entryX=1;entryY=0.5;entryDx=0;entryDy=0;" edge="1" parent="1" source="jGhHQP5u2WxOua8I9M75-24" target="jGhHQP5u2WxOua8I9M75-24">
          <mxGeometry width="50" height="50" relative="1" as="geometry">
            <mxPoint x="-802" y="396.5" as="sourcePoint" />
            <mxPoint x="-752" y="346.5" as="targetPoint" />
          </mxGeometry>
        </mxCell>
        <mxCell id="jGhHQP5u2WxOua8I9M75-26" value="&lt;span style=&quot;font-size: 14px&quot;&gt;收单交易&lt;br&gt;&lt;br&gt;支付，撤销，退款&lt;br&gt;&lt;/span&gt;" style="rounded=1;whiteSpace=wrap;html=1;fontSize=15;arcSize=7;fillColor=#E5CCFF;strokeColor=#000000;" vertex="1" parent="1">
          <mxGeometry x="-1307" y="280.5" width="125" height="60" as="geometry" />
        </mxCell>
        <mxCell id="jGhHQP5u2WxOua8I9M75-27" value="" style="endArrow=none;html=1;fontSize=15;exitX=0;exitY=0.5;exitDx=0;exitDy=0;entryX=1;entryY=0.5;entryDx=0;entryDy=0;" edge="1" parent="1" source="jGhHQP5u2WxOua8I9M75-26" target="jGhHQP5u2WxOua8I9M75-26">
          <mxGeometry width="50" height="50" relative="1" as="geometry">
            <mxPoint x="-982" y="396.5" as="sourcePoint" />
            <mxPoint x="-932" y="346.5" as="targetPoint" />
          </mxGeometry>
        </mxCell>
        <mxCell id="jGhHQP5u2WxOua8I9M75-28" value="&lt;span style=&quot;font-size: 14px&quot;&gt;入驻&lt;br&gt;&lt;br&gt;注册，签约，解约&lt;br&gt;&lt;/span&gt;" style="rounded=1;whiteSpace=wrap;html=1;fontSize=15;arcSize=7;fillColor=#E5CCFF;strokeColor=#000000;" vertex="1" parent="1">
          <mxGeometry x="-857.5" y="280.5" width="125" height="60" as="geometry" />
        </mxCell>
        <mxCell id="jGhHQP5u2WxOua8I9M75-29" value="" style="endArrow=none;html=1;fontSize=15;exitX=0;exitY=0.5;exitDx=0;exitDy=0;entryX=1;entryY=0.5;entryDx=0;entryDy=0;" edge="1" parent="1" source="jGhHQP5u2WxOua8I9M75-28" target="jGhHQP5u2WxOua8I9M75-28">
          <mxGeometry width="50" height="50" relative="1" as="geometry">
            <mxPoint x="-524.5" y="386.5" as="sourcePoint" />
            <mxPoint x="-474.5" y="336.5" as="targetPoint" />
          </mxGeometry>
        </mxCell>
        <mxCell id="jGhHQP5u2WxOua8I9M75-30" value="&lt;span style=&quot;font-size: 14px&quot;&gt;绑卡&lt;br&gt;&lt;br&gt;绑卡，解绑&lt;br&gt;&lt;/span&gt;" style="rounded=1;whiteSpace=wrap;html=1;fontSize=15;arcSize=7;fillColor=#E5CCFF;strokeColor=#000000;" vertex="1" parent="1">
          <mxGeometry x="-597" y="280.5" width="90" height="60" as="geometry" />
        </mxCell>
        <mxCell id="jGhHQP5u2WxOua8I9M75-31" value="" style="endArrow=none;html=1;fontSize=15;exitX=0;exitY=0.5;exitDx=0;exitDy=0;entryX=1;entryY=0.5;entryDx=0;entryDy=0;" edge="1" parent="1" source="jGhHQP5u2WxOua8I9M75-30" target="jGhHQP5u2WxOua8I9M75-30">
          <mxGeometry width="50" height="50" relative="1" as="geometry">
            <mxPoint x="-582" y="406.5" as="sourcePoint" />
            <mxPoint x="-532" y="356.5" as="targetPoint" />
          </mxGeometry>
        </mxCell>
        <mxCell id="jGhHQP5u2WxOua8I9M75-32" value="" style="rounded=0;whiteSpace=wrap;html=1;strokeColor=#000000;fillColor=#BEFF8C;fontSize=12;" vertex="1" parent="1">
          <mxGeometry x="-472" y="260.5" width="220" height="103" as="geometry" />
        </mxCell>
        <mxCell id="jGhHQP5u2WxOua8I9M75-33" value="补偿中心" style="text;html=1;strokeColor=none;fillColor=none;align=center;verticalAlign=middle;whiteSpace=wrap;rounded=0;fontSize=15;fontStyle=1;" vertex="1" parent="1">
          <mxGeometry x="-397" y="272" width="70" height="20" as="geometry" />
        </mxCell>
        <mxCell id="jGhHQP5u2WxOua8I9M75-34" value="" style="rounded=0;whiteSpace=wrap;html=1;strokeColor=#000000;fillColor=#BEFF8C;fontSize=12;" vertex="1" parent="1">
          <mxGeometry x="-472" y="377.5" width="220" height="150" as="geometry" />
        </mxCell>
        <mxCell id="jGhHQP5u2WxOua8I9M75-35" value="对账中心" style="text;html=1;strokeColor=none;fillColor=none;align=center;verticalAlign=middle;whiteSpace=wrap;rounded=0;fontSize=15;fontStyle=1;" vertex="1" parent="1">
          <mxGeometry x="-400" y="393.5" width="70" height="20" as="geometry" />
        </mxCell>
        <mxCell id="jGhHQP5u2WxOua8I9M75-36" value="" style="rounded=0;whiteSpace=wrap;html=1;strokeColor=#000000;fillColor=#BEFF8C;fontSize=12;" vertex="1" parent="1">
          <mxGeometry x="-472" y="543.5" width="220" height="114" as="geometry" />
        </mxCell>
        <mxCell id="jGhHQP5u2WxOua8I9M75-37" value="运营中心" style="text;html=1;strokeColor=none;fillColor=none;align=center;verticalAlign=middle;whiteSpace=wrap;rounded=0;fontSize=15;fontStyle=1;" vertex="1" parent="1">
          <mxGeometry x="-397" y="555" width="70" height="20" as="geometry" />
        </mxCell>
        <mxCell id="jGhHQP5u2WxOua8I9M75-38" value="" style="rounded=0;whiteSpace=wrap;html=1;fillColor=#E6E6E6;strokeColor=#000000;fontColor=#333333;" vertex="1" parent="1">
          <mxGeometry x="-1432" y="746.5" width="550" height="110" as="geometry" />
        </mxCell>
        <mxCell id="jGhHQP5u2WxOua8I9M75-39" value="账户支付" style="rounded=1;whiteSpace=wrap;html=1;strokeColor=#000000;fillColor=#FFCCFF;fontSize=16;" vertex="1" parent="1">
          <mxGeometry x="-1402" y="417" width="120" height="30" as="geometry" />
        </mxCell>
        <mxCell id="jGhHQP5u2WxOua8I9M75-40" value="虚拟支付" style="rounded=1;whiteSpace=wrap;html=1;strokeColor=#000000;fillColor=#FFCCFF;fontSize=16;" vertex="1" parent="1">
          <mxGeometry x="-1250" y="417" width="120" height="30" as="geometry" />
        </mxCell>
        <mxCell id="jGhHQP5u2WxOua8I9M75-41" value="" style="rounded=0;whiteSpace=wrap;html=1;fillColor=#E6E6E6;strokeColor=#000000;fontColor=#333333;" vertex="1" parent="1">
          <mxGeometry x="-869" y="746.5" width="377" height="110" as="geometry" />
        </mxCell>
        <mxCell id="jGhHQP5u2WxOua8I9M75-42" value="支付" style="rounded=1;whiteSpace=wrap;html=1;fillColor=#E5CCFF;arcSize=14;fontSize=16;" vertex="1" parent="1">
          <mxGeometry x="-1402" y="483.5" width="120" height="40" as="geometry" />
        </mxCell>
        <mxCell id="jGhHQP5u2WxOua8I9M75-43" value="退款" style="rounded=1;whiteSpace=wrap;html=1;fillColor=#E5CCFF;arcSize=14;fontSize=16;" vertex="1" parent="1">
          <mxGeometry x="-1250" y="483.5" width="120" height="40" as="geometry" />
        </mxCell>
        <mxCell id="jGhHQP5u2WxOua8I9M75-44" value="支付工具系统" style="text;html=1;strokeColor=none;fillColor=none;align=center;verticalAlign=middle;whiteSpace=wrap;rounded=0;fontSize=15;fontStyle=1" vertex="1" parent="1">
          <mxGeometry x="-1320" y="383.5" width="115" height="20" as="geometry" />
        </mxCell>
        <mxCell id="jGhHQP5u2WxOua8I9M75-45" value="财务系统" style="text;html=1;strokeColor=none;fillColor=none;align=center;verticalAlign=middle;whiteSpace=wrap;rounded=0;fontSize=15;fontStyle=1" vertex="1" parent="1">
          <mxGeometry x="-1427" y="788.5" width="95" height="20" as="geometry" />
        </mxCell>
        <mxCell id="jGhHQP5u2WxOua8I9M75-46" value="&lt;span style=&quot;font-size: 13px;&quot;&gt;账户&lt;br style=&quot;font-size: 13px;&quot;&gt;&lt;br style=&quot;font-size: 13px;&quot;&gt;开户，冻结，解冻，止入，止出&lt;br style=&quot;font-size: 13px;&quot;&gt;&lt;/span&gt;" style="rounded=1;whiteSpace=wrap;html=1;fontSize=13;arcSize=7;fillColor=#E5CCFF;strokeColor=#000000;" vertex="1" parent="1">
          <mxGeometry x="-1332" y="770" width="190" height="60" as="geometry" />
        </mxCell>
        <mxCell id="jGhHQP5u2WxOua8I9M75-47" value="" style="endArrow=none;html=1;fontSize=15;exitX=0;exitY=0.5;exitDx=0;exitDy=0;entryX=1;entryY=0.5;entryDx=0;entryDy=0;" edge="1" parent="1" source="jGhHQP5u2WxOua8I9M75-46" target="jGhHQP5u2WxOua8I9M75-46">
          <mxGeometry width="50" height="50" relative="1" as="geometry">
            <mxPoint x="-972" y="406.5" as="sourcePoint" />
            <mxPoint x="-922" y="356.5" as="targetPoint" />
          </mxGeometry>
        </mxCell>
        <mxCell id="jGhHQP5u2WxOua8I9M75-48" value="&lt;span style=&quot;font-size: 13px;&quot;&gt;账务&lt;br style=&quot;font-size: 13px;&quot;&gt;&lt;br style=&quot;font-size: 13px;&quot;&gt;记账，平账，挂账，收支记录，对账单&lt;br style=&quot;font-size: 13px;&quot;&gt;&lt;/span&gt;" style="rounded=1;whiteSpace=wrap;html=1;fontSize=13;arcSize=7;fillColor=#E5CCFF;strokeColor=#000000;" vertex="1" parent="1">
          <mxGeometry x="-1127" y="770" width="230" height="60" as="geometry" />
        </mxCell>
        <mxCell id="jGhHQP5u2WxOua8I9M75-49" value="" style="endArrow=none;html=1;fontSize=15;exitX=0;exitY=0.5;exitDx=0;exitDy=0;entryX=1;entryY=0.5;entryDx=0;entryDy=0;" edge="1" parent="1" source="jGhHQP5u2WxOua8I9M75-48" target="jGhHQP5u2WxOua8I9M75-48">
          <mxGeometry width="50" height="50" relative="1" as="geometry">
            <mxPoint x="-958" y="1039.5" as="sourcePoint" />
            <mxPoint x="-908" y="989.5" as="targetPoint" />
          </mxGeometry>
        </mxCell>
        <mxCell id="jGhHQP5u2WxOua8I9M75-50" value="&lt;span style=&quot;font-size: 14px&quot;&gt;&lt;span&gt;日切&lt;/span&gt;&lt;br&gt;&lt;br&gt;日切，汇总，试算平衡&lt;br&gt;&lt;/span&gt;" style="rounded=1;whiteSpace=wrap;html=1;fontSize=15;arcSize=7;fillColor=#E5CCFF;strokeColor=#000000;fontStyle=0" vertex="1" parent="1">
          <mxGeometry x="-787" y="771.5" width="160" height="60" as="geometry" />
        </mxCell>
        <mxCell id="jGhHQP5u2WxOua8I9M75-51" value="" style="endArrow=none;html=1;fontSize=15;exitX=0;exitY=0.5;exitDx=0;exitDy=0;entryX=1;entryY=0.5;entryDx=0;entryDy=0;" edge="1" parent="1" source="jGhHQP5u2WxOua8I9M75-50" target="jGhHQP5u2WxOua8I9M75-50">
          <mxGeometry width="50" height="50" relative="1" as="geometry">
            <mxPoint x="-933.5" y="1139.5" as="sourcePoint" />
            <mxPoint x="-883.5" y="1089.5" as="targetPoint" />
          </mxGeometry>
        </mxCell>
        <mxCell id="jGhHQP5u2WxOua8I9M75-52" value="会计系统" style="text;html=1;strokeColor=none;fillColor=none;align=center;verticalAlign=middle;whiteSpace=wrap;rounded=0;fontSize=15;fontStyle=1" vertex="1" parent="1">
          <mxGeometry x="-862" y="791.5" width="73" height="20" as="geometry" />
        </mxCell>
        <mxCell id="jGhHQP5u2WxOua8I9M75-53" value="&lt;span style=&quot;font-size: 14px&quot;&gt;&lt;span&gt;会计分录&lt;/span&gt;&lt;br&gt;&lt;br&gt;记账&lt;br&gt;&lt;/span&gt;" style="rounded=1;whiteSpace=wrap;html=1;fontSize=15;arcSize=7;fillColor=#E5CCFF;strokeColor=#000000;fontStyle=0" vertex="1" parent="1">
          <mxGeometry x="-612" y="770" width="108" height="60" as="geometry" />
        </mxCell>
        <mxCell id="jGhHQP5u2WxOua8I9M75-54" value="" style="endArrow=none;html=1;fontSize=15;exitX=0;exitY=0.5;exitDx=0;exitDy=0;entryX=1;entryY=0.5;entryDx=0;entryDy=0;" edge="1" parent="1" source="jGhHQP5u2WxOua8I9M75-53" target="jGhHQP5u2WxOua8I9M75-53">
          <mxGeometry width="50" height="50" relative="1" as="geometry">
            <mxPoint x="-769" y="1209.5" as="sourcePoint" />
            <mxPoint x="-719" y="1159.5" as="targetPoint" />
          </mxGeometry>
        </mxCell>
        <mxCell id="jGhHQP5u2WxOua8I9M75-55" value="" style="group" vertex="1" connectable="0" parent="1">
          <mxGeometry x="-1432" y="643.5" width="940" height="90" as="geometry" />
        </mxCell>
        <mxCell id="jGhHQP5u2WxOua8I9M75-56" value="" style="rounded=0;whiteSpace=wrap;html=1;fillColor=#FFE9C2;strokeColor=#000000;fontColor=#333333;" vertex="1" parent="jGhHQP5u2WxOua8I9M75-55">
          <mxGeometry x="327.5" width="270" height="90" as="geometry" />
        </mxCell>
        <mxCell id="jGhHQP5u2WxOua8I9M75-57" value="" style="rounded=0;whiteSpace=wrap;html=1;fillColor=#FFE9C2;strokeColor=#000000;fontColor=#333333;" vertex="1" parent="jGhHQP5u2WxOua8I9M75-55">
          <mxGeometry width="312" height="90" as="geometry" />
        </mxCell>
        <mxCell id="jGhHQP5u2WxOua8I9M75-58" value="" style="rounded=0;whiteSpace=wrap;html=1;fillColor=#FFE9C2;strokeColor=#000000;fontColor=#333333;" vertex="1" parent="jGhHQP5u2WxOua8I9M75-55">
          <mxGeometry x="615" width="325" height="90" as="geometry" />
        </mxCell>
        <mxCell id="jGhHQP5u2WxOua8I9M75-59" value="清结算中心" style="text;html=1;strokeColor=none;fillColor=none;align=center;verticalAlign=middle;whiteSpace=wrap;rounded=0;fontSize=15;fontStyle=1" vertex="1" parent="jGhHQP5u2WxOua8I9M75-55">
          <mxGeometry x="10" y="36" width="95" height="18" as="geometry" />
        </mxCell>
        <mxCell id="jGhHQP5u2WxOua8I9M75-60" value="清&lt;br&gt;分" style="rounded=1;whiteSpace=wrap;html=1;fillColor=#E5CCFF;arcSize=14;fontSize=18;" vertex="1" parent="jGhHQP5u2WxOua8I9M75-55">
          <mxGeometry x="110" y="13.5" width="40" height="63" as="geometry" />
        </mxCell>
        <mxCell id="jGhHQP5u2WxOua8I9M75-61" value="结&lt;br&gt;算" style="rounded=1;whiteSpace=wrap;html=1;fillColor=#E5CCFF;arcSize=14;fontSize=18;" vertex="1" parent="jGhHQP5u2WxOua8I9M75-55">
          <mxGeometry x="178" y="13.950000000000001" width="40" height="63" as="geometry" />
        </mxCell>
        <mxCell id="jGhHQP5u2WxOua8I9M75-62" value="&lt;font style=&quot;font-size: 17px;&quot;&gt;结&lt;br style=&quot;font-size: 17px;&quot;&gt;算&lt;br style=&quot;font-size: 17px;&quot;&gt;单&lt;/font&gt;" style="rounded=1;whiteSpace=wrap;html=1;fillColor=#E5CCFF;arcSize=14;fontSize=17;" vertex="1" parent="jGhHQP5u2WxOua8I9M75-55">
          <mxGeometry x="245" y="13.950000000000001" width="40" height="63" as="geometry" />
        </mxCell>
        <mxCell id="jGhHQP5u2WxOua8I9M75-63" value="计费平台" style="text;html=1;strokeColor=none;fillColor=none;align=center;verticalAlign=middle;whiteSpace=wrap;rounded=0;fontSize=15;fontStyle=1" vertex="1" parent="jGhHQP5u2WxOua8I9M75-55">
          <mxGeometry x="342" y="36" width="73" height="18" as="geometry" />
        </mxCell>
        <mxCell id="jGhHQP5u2WxOua8I9M75-64" value="&lt;font style=&quot;font-size: 18px&quot;&gt;计&lt;br&gt;费&lt;/font&gt;" style="rounded=1;whiteSpace=wrap;html=1;fillColor=#E5CCFF;arcSize=14;fontSize=19;" vertex="1" parent="jGhHQP5u2WxOua8I9M75-55">
          <mxGeometry x="427" y="22.5" width="40" height="45" as="geometry" />
        </mxCell>
        <mxCell id="jGhHQP5u2WxOua8I9M75-65" value="分&lt;br&gt;润" style="rounded=1;whiteSpace=wrap;html=1;fillColor=#E5CCFF;arcSize=14;fontSize=18;" vertex="1" parent="jGhHQP5u2WxOua8I9M75-55">
          <mxGeometry x="484" y="22.5" width="40" height="45" as="geometry" />
        </mxCell>
        <mxCell id="jGhHQP5u2WxOua8I9M75-66" value="&lt;font style=&quot;font-size: 18px&quot;&gt;返&lt;br&gt;佣&lt;/font&gt;" style="rounded=1;whiteSpace=wrap;html=1;fillColor=#E5CCFF;arcSize=14;fontSize=19;" vertex="1" parent="jGhHQP5u2WxOua8I9M75-55">
          <mxGeometry x="540" y="22.5" width="40" height="45" as="geometry" />
        </mxCell>
        <mxCell id="jGhHQP5u2WxOua8I9M75-67" value="合规风控" style="text;html=1;strokeColor=none;fillColor=none;align=center;verticalAlign=middle;whiteSpace=wrap;rounded=0;fontSize=15;fontStyle=1" vertex="1" parent="jGhHQP5u2WxOua8I9M75-55">
          <mxGeometry x="623.5" y="36" width="73" height="18" as="geometry" />
        </mxCell>
        <mxCell id="jGhHQP5u2WxOua8I9M75-68" value="合规" style="rounded=1;whiteSpace=wrap;html=1;fillColor=#E5CCFF;arcSize=14;fontSize=19;" vertex="1" parent="jGhHQP5u2WxOua8I9M75-55">
          <mxGeometry x="705" y="22.5" width="40" height="45" as="geometry" />
        </mxCell>
        <mxCell id="jGhHQP5u2WxOua8I9M75-69" value="风控" style="rounded=1;whiteSpace=wrap;html=1;fillColor=#E5CCFF;arcSize=14;fontSize=19;" vertex="1" parent="jGhHQP5u2WxOua8I9M75-55">
          <mxGeometry x="759" y="22.5" width="40" height="45" as="geometry" />
        </mxCell>
        <mxCell id="jGhHQP5u2WxOua8I9M75-70" value="备付金管理" style="rounded=1;whiteSpace=wrap;html=1;fillColor=#E5CCFF;arcSize=14;fontSize=19;" vertex="1" parent="jGhHQP5u2WxOua8I9M75-55">
          <mxGeometry x="812.5" y="22.5" width="110" height="45" as="geometry" />
        </mxCell>
        <mxCell id="jGhHQP5u2WxOua8I9M75-71" value="" style="group" vertex="1" connectable="0" parent="1">
          <mxGeometry x="-472" y="673.5" width="220" height="183" as="geometry" />
        </mxCell>
        <mxCell id="jGhHQP5u2WxOua8I9M75-72" value="" style="rounded=0;whiteSpace=wrap;html=1;strokeColor=#000000;fillColor=#99CCFF;fontSize=12;" vertex="1" parent="jGhHQP5u2WxOua8I9M75-71">
          <mxGeometry width="220" height="183" as="geometry" />
        </mxCell>
        <mxCell id="jGhHQP5u2WxOua8I9M75-73" value="支付基础" style="text;html=1;strokeColor=none;fillColor=none;align=center;verticalAlign=middle;whiteSpace=wrap;rounded=0;fontSize=15;fontStyle=1;" vertex="1" parent="jGhHQP5u2WxOua8I9M75-71">
          <mxGeometry x="69.75609756097562" y="6" width="75.1219512195122" height="20" as="geometry" />
        </mxCell>
        <mxCell id="jGhHQP5u2WxOua8I9M75-74" value="" style="group" vertex="1" connectable="0" parent="jGhHQP5u2WxOua8I9M75-71">
          <mxGeometry x="15.560975609756099" y="38" width="182.97560975609758" height="130" as="geometry" />
        </mxCell>
        <mxCell id="jGhHQP5u2WxOua8I9M75-75" value="&lt;span style=&quot;font-size: 14px&quot;&gt;&lt;b&gt;分布式事务&lt;/b&gt;&lt;br&gt;&lt;br&gt;TCC，MQ&lt;br&gt;&lt;/span&gt;" style="rounded=1;whiteSpace=wrap;html=1;fontSize=15;arcSize=7;fillColor=#FFCCFF;strokeColor=#000000;" vertex="1" parent="jGhHQP5u2WxOua8I9M75-74">
          <mxGeometry y="70" width="85.85365853658537" height="60" as="geometry" />
        </mxCell>
        <mxCell id="jGhHQP5u2WxOua8I9M75-76" value="&lt;span style=&quot;font-size: 14px&quot;&gt;&lt;b&gt;配置管理&lt;/b&gt;&lt;br&gt;&lt;br&gt;变色龙&lt;br&gt;&lt;/span&gt;" style="rounded=1;whiteSpace=wrap;html=1;fontSize=15;arcSize=7;fillColor=#FFCCFF;strokeColor=#000000;" vertex="1" parent="jGhHQP5u2WxOua8I9M75-74">
          <mxGeometry x="97.1219512195122" y="70" width="85.85365853658537" height="60" as="geometry" />
        </mxCell>
        <mxCell id="jGhHQP5u2WxOua8I9M75-77" value="" style="group" vertex="1" connectable="0" parent="jGhHQP5u2WxOua8I9M75-74">
          <mxGeometry x="97.1219512195122" width="85.85365853658537" height="60" as="geometry" />
        </mxCell>
        <mxCell id="jGhHQP5u2WxOua8I9M75-78" value="&lt;span style=&quot;font-size: 14px&quot;&gt;&lt;b style=&quot;font-size: 14px;&quot;&gt;安全机制&lt;br style=&quot;font-size: 14px;&quot;&gt;&lt;/b&gt;安全存储，加密验签&amp;nbsp; &amp;nbsp;&amp;nbsp;&lt;br style=&quot;font-size: 14px;&quot;&gt;&lt;/span&gt;" style="rounded=1;whiteSpace=wrap;html=1;fontSize=14;arcSize=7;fillColor=#FFCCFF;strokeColor=#000000;align=center;verticalAlign=bottom;labelPosition=center;verticalLabelPosition=middle;" vertex="1" parent="jGhHQP5u2WxOua8I9M75-77">
          <mxGeometry width="85.85365853658537" height="60" as="geometry" />
        </mxCell>
        <mxCell id="jGhHQP5u2WxOua8I9M75-79" value="" style="endArrow=none;html=1;fontSize=15;exitX=0;exitY=0.5;exitDx=0;exitDy=0;entryX=1;entryY=0.5;entryDx=0;entryDy=0;" edge="1" parent="jGhHQP5u2WxOua8I9M75-77">
          <mxGeometry width="50" height="50" relative="1" as="geometry">
            <mxPoint y="27.5" as="sourcePoint" />
            <mxPoint x="85.85365853658537" y="27.5" as="targetPoint" />
          </mxGeometry>
        </mxCell>
        <mxCell id="jGhHQP5u2WxOua8I9M75-80" value="" style="group" vertex="1" connectable="0" parent="jGhHQP5u2WxOua8I9M75-74">
          <mxGeometry width="85.85365853658537" height="60" as="geometry" />
        </mxCell>
        <mxCell id="jGhHQP5u2WxOua8I9M75-81" value="&lt;span style=&quot;font-size: 14px&quot;&gt;&lt;b style=&quot;font-size: 14px;&quot;&gt;监控预警&lt;br style=&quot;font-size: 14px;&quot;&gt;&lt;/b&gt;机器，数据，日志&lt;br style=&quot;font-size: 14px;&quot;&gt;&lt;/span&gt;" style="rounded=1;whiteSpace=wrap;html=1;fontSize=14;arcSize=7;fillColor=#FFCCFF;strokeColor=#000000;verticalAlign=bottom;" vertex="1" parent="jGhHQP5u2WxOua8I9M75-80">
          <mxGeometry width="85.85365853658537" height="60" as="geometry" />
        </mxCell>
        <mxCell id="jGhHQP5u2WxOua8I9M75-82" value="" style="endArrow=none;html=1;fontSize=15;exitX=0;exitY=0.5;exitDx=0;exitDy=0;entryX=1;entryY=0.5;entryDx=0;entryDy=0;" edge="1" parent="jGhHQP5u2WxOua8I9M75-80">
          <mxGeometry width="50" height="50" relative="1" as="geometry">
            <mxPoint y="27.5" as="sourcePoint" />
            <mxPoint x="85.85365853658537" y="27.5" as="targetPoint" />
          </mxGeometry>
        </mxCell>
        <mxCell id="jGhHQP5u2WxOua8I9M75-83" value="" style="endArrow=none;html=1;fontSize=15;exitX=0;exitY=0.5;exitDx=0;exitDy=0;entryX=1;entryY=0.5;entryDx=0;entryDy=0;" edge="1" parent="jGhHQP5u2WxOua8I9M75-74" source="jGhHQP5u2WxOua8I9M75-75" target="jGhHQP5u2WxOua8I9M75-75">
          <mxGeometry width="50" height="50" relative="1" as="geometry">
            <mxPoint x="-209.26829268292684" y="491" as="sourcePoint" />
            <mxPoint x="-155.609756097561" y="441" as="targetPoint" />
          </mxGeometry>
        </mxCell>
        <mxCell id="jGhHQP5u2WxOua8I9M75-84" value="" style="endArrow=none;html=1;fontSize=15;exitX=0;exitY=0.5;exitDx=0;exitDy=0;entryX=1;entryY=0.5;entryDx=0;entryDy=0;" edge="1" parent="jGhHQP5u2WxOua8I9M75-74" source="jGhHQP5u2WxOua8I9M75-76" target="jGhHQP5u2WxOua8I9M75-76">
          <mxGeometry width="50" height="50" relative="1" as="geometry">
            <mxPoint x="-101.95121951219512" y="581" as="sourcePoint" />
            <mxPoint x="-48.29268292682927" y="531" as="targetPoint" />
          </mxGeometry>
        </mxCell>
        <mxCell id="jGhHQP5u2WxOua8I9M75-85" value="" style="group" vertex="1" connectable="0" parent="1">
          <mxGeometry x="-448.5" y="592.5" width="179.5" height="50" as="geometry" />
        </mxCell>
        <mxCell id="jGhHQP5u2WxOua8I9M75-86" value="商户管理" style="rounded=1;whiteSpace=wrap;html=1;strokeColor=#000000;fillColor=#99CCFF;fontSize=16;" vertex="1" parent="jGhHQP5u2WxOua8I9M75-85">
          <mxGeometry width="50" height="50" as="geometry" />
        </mxCell>
        <mxCell id="jGhHQP5u2WxOua8I9M75-87" value="订单管理" style="rounded=1;whiteSpace=wrap;html=1;strokeColor=#000000;fillColor=#99CCFF;fontSize=16;" vertex="1" parent="jGhHQP5u2WxOua8I9M75-85">
          <mxGeometry x="65" width="50" height="50" as="geometry" />
        </mxCell>
        <mxCell id="jGhHQP5u2WxOua8I9M75-88" value="渠道管理" style="rounded=1;whiteSpace=wrap;html=1;strokeColor=#000000;fillColor=#99CCFF;fontSize=16;" vertex="1" parent="jGhHQP5u2WxOua8I9M75-85">
          <mxGeometry x="129.5" width="50" height="50" as="geometry" />
        </mxCell>
        <mxCell id="jGhHQP5u2WxOua8I9M75-89" value="" style="group" vertex="1" connectable="0" parent="1">
          <mxGeometry x="-446" y="433" width="162.5" height="74.5" as="geometry" />
        </mxCell>
        <mxCell id="jGhHQP5u2WxOua8I9M75-90" value="内部对账" style="rounded=1;whiteSpace=wrap;html=1;strokeColor=#000000;fillColor=#99CCFF;fontSize=16;" vertex="1" parent="jGhHQP5u2WxOua8I9M75-89">
          <mxGeometry width="75" height="30" as="geometry" />
        </mxCell>
        <mxCell id="jGhHQP5u2WxOua8I9M75-91" value="外部对账" style="rounded=1;whiteSpace=wrap;html=1;strokeColor=#000000;fillColor=#99CCFF;fontSize=16;" vertex="1" parent="jGhHQP5u2WxOua8I9M75-89">
          <mxGeometry x="87.5" width="75" height="30" as="geometry" />
        </mxCell>
        <mxCell id="jGhHQP5u2WxOua8I9M75-92" value="结果展示" style="rounded=1;whiteSpace=wrap;html=1;strokeColor=#000000;fillColor=#99CCFF;fontSize=16;" vertex="1" parent="jGhHQP5u2WxOua8I9M75-89">
          <mxGeometry y="44.5" width="75" height="30" as="geometry" />
        </mxCell>
        <mxCell id="jGhHQP5u2WxOua8I9M75-93" value="差错处理" style="rounded=1;whiteSpace=wrap;html=1;strokeColor=#000000;fillColor=#99CCFF;fontSize=16;" vertex="1" parent="jGhHQP5u2WxOua8I9M75-89">
          <mxGeometry x="87.5" y="44.5" width="75" height="30" as="geometry" />
        </mxCell>
        <mxCell id="jGhHQP5u2WxOua8I9M75-94" value="" style="group" vertex="1" connectable="0" parent="1">
          <mxGeometry x="-449.5" y="302" width="180" height="50" as="geometry" />
        </mxCell>
        <mxCell id="jGhHQP5u2WxOua8I9M75-95" value="支付查询" style="rounded=1;whiteSpace=wrap;html=1;strokeColor=#000000;fillColor=#99CCFF;fontSize=16;" vertex="1" parent="jGhHQP5u2WxOua8I9M75-94">
          <mxGeometry width="50" height="50" as="geometry" />
        </mxCell>
        <mxCell id="jGhHQP5u2WxOua8I9M75-96" value="退款查询" style="rounded=1;whiteSpace=wrap;html=1;strokeColor=#000000;fillColor=#99CCFF;fontSize=16;" vertex="1" parent="jGhHQP5u2WxOua8I9M75-94">
          <mxGeometry x="65" width="50" height="50" as="geometry" />
        </mxCell>
        <mxCell id="jGhHQP5u2WxOua8I9M75-97" value="提现查询" style="rounded=1;whiteSpace=wrap;html=1;strokeColor=#000000;fillColor=#99CCFF;fontSize=16;" vertex="1" parent="jGhHQP5u2WxOua8I9M75-94">
          <mxGeometry x="130" width="50" height="50" as="geometry" />
        </mxCell>
        <mxCell id="jGhHQP5u2WxOua8I9M75-98" value="" style="group" vertex="1" connectable="0" parent="1">
          <mxGeometry x="-1047" y="562" width="535" height="54" as="geometry" />
        </mxCell>
        <mxCell id="jGhHQP5u2WxOua8I9M75-99" value="通道路由" style="rounded=1;whiteSpace=wrap;html=1;fillColor=#EBE4EB;fontSize=16;strokeColor=#000000;" vertex="1" parent="jGhHQP5u2WxOua8I9M75-98">
          <mxGeometry width="535" height="35" as="geometry" />
        </mxCell>
        <mxCell id="jGhHQP5u2WxOua8I9M75-100" value="易&lt;br&gt;宝" style="ellipse;whiteSpace=wrap;html=1;aspect=fixed;strokeColor=#666666;fillColor=#FFCCFF;fontSize=16;" vertex="1" parent="jGhHQP5u2WxOua8I9M75-98">
          <mxGeometry x="15" y="14" width="40" height="40" as="geometry" />
        </mxCell>
        <mxCell id="jGhHQP5u2WxOua8I9M75-101" value="建行&lt;br style=&quot;font-size: 14px;&quot;&gt;直连" style="ellipse;whiteSpace=wrap;html=1;aspect=fixed;strokeColor=#666666;fillColor=#FFCCFF;fontSize=14;" vertex="1" parent="jGhHQP5u2WxOua8I9M75-98">
          <mxGeometry x="69" y="14" width="40" height="40" as="geometry" />
        </mxCell>
        <mxCell id="jGhHQP5u2WxOua8I9M75-102" value="快钱间连" style="ellipse;whiteSpace=wrap;html=1;aspect=fixed;strokeColor=#666666;fillColor=#FFCCFF;fontSize=14;" vertex="1" parent="jGhHQP5u2WxOua8I9M75-98">
          <mxGeometry x="124" y="14" width="40" height="40" as="geometry" />
        </mxCell>
        <mxCell id="jGhHQP5u2WxOua8I9M75-103" value="微&lt;br&gt;信" style="ellipse;whiteSpace=wrap;html=1;aspect=fixed;strokeColor=#666666;fillColor=#FFCCFF;fontSize=16;" vertex="1" parent="jGhHQP5u2WxOua8I9M75-98">
          <mxGeometry x="178" y="14" width="40" height="40" as="geometry" />
        </mxCell>
        <mxCell id="jGhHQP5u2WxOua8I9M75-104" value="花&lt;br&gt;呗" style="ellipse;whiteSpace=wrap;html=1;aspect=fixed;strokeColor=#666666;fillColor=#FFCCFF;fontSize=16;" vertex="1" parent="jGhHQP5u2WxOua8I9M75-98">
          <mxGeometry x="335" y="14" width="40" height="40" as="geometry" />
        </mxCell>
        <mxCell id="jGhHQP5u2WxOua8I9M75-105" value="支付宝&lt;br style=&quot;font-size: 12px;&quot;&gt;国际" style="ellipse;whiteSpace=wrap;html=1;aspect=fixed;strokeColor=#666666;fillColor=#FFCCFF;fontSize=12;" vertex="1" parent="jGhHQP5u2WxOua8I9M75-98">
          <mxGeometry x="476.5" y="14" width="40" height="40" as="geometry" />
        </mxCell>
        <mxCell id="jGhHQP5u2WxOua8I9M75-106" value="" style="group" vertex="1" connectable="0" parent="1">
          <mxGeometry x="-1425" y="562" width="315" height="54.5" as="geometry" />
        </mxCell>
        <mxCell id="jGhHQP5u2WxOua8I9M75-107" value="账务前置" style="rounded=1;whiteSpace=wrap;html=1;fillColor=#EBE4EB;fontSize=16;strokeColor=#000000;" vertex="1" parent="jGhHQP5u2WxOua8I9M75-106">
          <mxGeometry width="315" height="35" as="geometry" />
        </mxCell>
        <mxCell id="jGhHQP5u2WxOua8I9M75-108" value="余&lt;br&gt;额" style="ellipse;whiteSpace=wrap;html=1;aspect=fixed;strokeColor=#666666;fillColor=#FFCCFF;fontSize=16;" vertex="1" parent="jGhHQP5u2WxOua8I9M75-106">
          <mxGeometry x="15.5" y="14.5" width="40" height="40" as="geometry" />
        </mxCell>
        <mxCell id="jGhHQP5u2WxOua8I9M75-109" value="积&lt;br&gt;分" style="ellipse;whiteSpace=wrap;html=1;aspect=fixed;strokeColor=#666666;fillColor=#FFCCFF;fontSize=16;" vertex="1" parent="jGhHQP5u2WxOua8I9M75-106">
          <mxGeometry x="74" y="14.5" width="40" height="40" as="geometry" />
        </mxCell>
        <mxCell id="jGhHQP5u2WxOua8I9M75-110" value="红&lt;br&gt;包" style="ellipse;whiteSpace=wrap;html=1;aspect=fixed;strokeColor=#666666;fillColor=#FFCCFF;fontSize=16;" vertex="1" parent="jGhHQP5u2WxOua8I9M75-106">
          <mxGeometry x="202" y="14.5" width="40" height="40" as="geometry" />
        </mxCell>
        <mxCell id="jGhHQP5u2WxOua8I9M75-111" value="储&lt;br&gt;卡" style="ellipse;whiteSpace=wrap;html=1;aspect=fixed;strokeColor=#666666;fillColor=#FFCCFF;fontSize=16;" vertex="1" parent="jGhHQP5u2WxOua8I9M75-106">
          <mxGeometry x="262.5" y="14.5" width="40" height="40" as="geometry" />
        </mxCell>
        <mxCell id="jGhHQP5u2WxOua8I9M75-112" value="支付渠道系统" style="text;html=1;strokeColor=none;fillColor=none;align=center;verticalAlign=middle;whiteSpace=wrap;rounded=0;fontSize=15;fontStyle=1" vertex="1" parent="1">
          <mxGeometry x="-850.5" y="383.5" width="115" height="20" as="geometry" />
        </mxCell>
        <mxCell id="jGhHQP5u2WxOua8I9M75-113" value="" style="group" vertex="1" connectable="0" parent="1">
          <mxGeometry x="-1078" y="417" width="570" height="30" as="geometry" />
        </mxCell>
        <mxCell id="jGhHQP5u2WxOua8I9M75-114" value="快捷支付" style="rounded=1;whiteSpace=wrap;html=1;strokeColor=#000000;fillColor=#FFCCFF;fontSize=16;" vertex="1" parent="jGhHQP5u2WxOua8I9M75-113">
          <mxGeometry width="100" height="30" as="geometry" />
        </mxCell>
        <mxCell id="jGhHQP5u2WxOua8I9M75-115" value="网银支付" style="rounded=1;whiteSpace=wrap;html=1;strokeColor=#000000;fillColor=#FFCCFF;fontSize=16;" vertex="1" parent="jGhHQP5u2WxOua8I9M75-113">
          <mxGeometry x="118" width="100" height="30" as="geometry" />
        </mxCell>
        <mxCell id="jGhHQP5u2WxOua8I9M75-116" value="平台支付" style="rounded=1;whiteSpace=wrap;html=1;strokeColor=#000000;fillColor=#FFCCFF;fontSize=16;" vertex="1" parent="jGhHQP5u2WxOua8I9M75-113">
          <mxGeometry x="235" width="100" height="30" as="geometry" />
        </mxCell>
        <mxCell id="jGhHQP5u2WxOua8I9M75-117" value="信用支付" style="rounded=1;whiteSpace=wrap;html=1;strokeColor=#000000;fillColor=#FFCCFF;fontSize=16;" vertex="1" parent="jGhHQP5u2WxOua8I9M75-113">
          <mxGeometry x="353" width="100" height="30" as="geometry" />
        </mxCell>
        <mxCell id="jGhHQP5u2WxOua8I9M75-118" value="外币支付" style="rounded=1;whiteSpace=wrap;html=1;strokeColor=#000000;fillColor=#FFCCFF;fontSize=16;" vertex="1" parent="jGhHQP5u2WxOua8I9M75-113">
          <mxGeometry x="470" width="100" height="30" as="geometry" />
        </mxCell>
        <mxCell id="jGhHQP5u2WxOua8I9M75-119" value="" style="group" vertex="1" connectable="0" parent="1">
          <mxGeometry x="-1080" y="483.5" width="576" height="40" as="geometry" />
        </mxCell>
        <mxCell id="jGhHQP5u2WxOua8I9M75-120" value="支付" style="rounded=1;whiteSpace=wrap;html=1;fillColor=#E5CCFF;arcSize=14;fontSize=16;" vertex="1" parent="jGhHQP5u2WxOua8I9M75-119">
          <mxGeometry width="60" height="40" as="geometry" />
        </mxCell>
        <mxCell id="jGhHQP5u2WxOua8I9M75-121" value="退款" style="rounded=1;whiteSpace=wrap;html=1;fillColor=#E5CCFF;arcSize=14;fontSize=16;" vertex="1" parent="jGhHQP5u2WxOua8I9M75-119">
          <mxGeometry x="76" width="60" height="40" as="geometry" />
        </mxCell>
        <mxCell id="jGhHQP5u2WxOua8I9M75-122" value="撤销" style="rounded=1;whiteSpace=wrap;html=1;fillColor=#E5CCFF;arcSize=14;fontSize=16;" vertex="1" parent="jGhHQP5u2WxOua8I9M75-119">
          <mxGeometry x="152" width="60" height="40" as="geometry" />
        </mxCell>
        <mxCell id="jGhHQP5u2WxOua8I9M75-123" value="代付" style="rounded=1;whiteSpace=wrap;html=1;fillColor=#E5CCFF;arcSize=14;fontSize=16;" vertex="1" parent="jGhHQP5u2WxOua8I9M75-119">
          <mxGeometry x="228" width="60" height="40" as="geometry" />
        </mxCell>
        <mxCell id="jGhHQP5u2WxOua8I9M75-124" value="签约" style="rounded=1;whiteSpace=wrap;html=1;fillColor=#E5CCFF;arcSize=14;fontSize=16;" vertex="1" parent="jGhHQP5u2WxOua8I9M75-119">
          <mxGeometry x="304" width="60" height="40" as="geometry" />
        </mxCell>
        <mxCell id="jGhHQP5u2WxOua8I9M75-125" value="认证" style="rounded=1;whiteSpace=wrap;html=1;fillColor=#E5CCFF;arcSize=14;fontSize=16;" vertex="1" parent="jGhHQP5u2WxOua8I9M75-119">
          <mxGeometry x="380" width="60" height="40" as="geometry" />
        </mxCell>
        <mxCell id="jGhHQP5u2WxOua8I9M75-126" value="对账单下载" style="rounded=1;whiteSpace=wrap;html=1;fillColor=#E5CCFF;arcSize=14;fontSize=16;" vertex="1" parent="jGhHQP5u2WxOua8I9M75-119">
          <mxGeometry x="456" width="120" height="40" as="geometry" />
        </mxCell>
        <mxCell id="jGhHQP5u2WxOua8I9M75-127" value="支付系统功能架构图" style="text;html=1;strokeColor=none;fillColor=none;align=left;verticalAlign=middle;whiteSpace=wrap;rounded=0;fontSize=38;" vertex="1" parent="1">
          <mxGeometry x="-1431" y="100" width="354" height="50" as="geometry" />
        </mxCell>
      </root>
    </mxGraphModel>
  </diagram>
</mxfile>
